<svg width="81" height="32" viewBox="0 0 81 32" fill="none" xmlns="http://www.w3.org/2000/svg">
<g clip-path="url(#clip0_0_237)">
<path d="M16.3153 16.1313L12.2657 18.6688L8.21332 16.1313L12.2657 9L16.3153 16.1313ZM12.2657 19.4836L8.21332 16.9461L12.2657 23L16.318 16.9461L12.2657 19.4836Z" fill="#00AC4F"/>
</g>
<path d="M25.7913 20.144C25.0153 20.144 24.3513 19.964 23.7993 19.604C23.2473 19.236 22.8193 18.728 22.5153 18.08C22.2193 17.424 22.0713 16.664 22.0713 15.8C22.0713 14.944 22.2193 14.188 22.5153 13.532C22.8193 12.876 23.2473 12.368 23.7993 12.008C24.3513 11.64 25.0153 11.456 25.7913 11.456C26.5673 11.456 27.2313 11.64 27.7833 12.008C28.3353 12.368 28.7593 12.876 29.0553 13.532C29.3593 14.188 29.5113 14.944 29.5113 15.8C29.5113 16.664 29.3593 17.424 29.0553 18.08C28.7593 18.728 28.3353 19.236 27.7833 19.604C27.2313 19.964 26.5673 20.144 25.7913 20.144ZM25.7913 18.764C26.4233 18.764 26.9393 18.5 27.3393 17.972C27.7393 17.444 27.9393 16.72 27.9393 15.8C27.9393 14.88 27.7393 14.156 27.3393 13.628C26.9393 13.1 26.4233 12.836 25.7913 12.836C25.1513 12.836 24.6313 13.1 24.2313 13.628C23.8393 14.156 23.6433 14.88 23.6433 15.8C23.6433 16.72 23.8393 17.444 24.2313 17.972C24.6313 18.5 25.1513 18.764 25.7913 18.764ZM31.0103 20.084C30.7303 20.084 30.4983 19.996 30.3143 19.82C30.1383 19.644 30.0503 19.432 30.0503 19.184C30.0503 18.928 30.1383 18.712 30.3143 18.536C30.4983 18.36 30.7303 18.272 31.0103 18.272C31.2903 18.272 31.5183 18.36 31.6943 18.536C31.8783 18.712 31.9703 18.928 31.9703 19.184C31.9703 19.432 31.8783 19.644 31.6943 19.82C31.5183 19.996 31.2903 20.084 31.0103 20.084ZM33.0651 20V18.884C33.5771 18.46 34.0731 18.04 34.5531 17.624C35.0411 17.208 35.4731 16.796 35.8491 16.388C36.2331 15.98 36.5371 15.584 36.7611 15.2C36.9931 14.808 37.1091 14.428 37.1091 14.06C37.1091 13.716 37.0131 13.412 36.8211 13.148C36.6371 12.884 36.3291 12.752 35.8971 12.752C35.4571 12.752 35.1251 12.896 34.9011 13.184C34.6771 13.472 34.5651 13.82 34.5651 14.228H33.0771C33.0931 13.612 33.2291 13.1 33.4851 12.692C33.7411 12.276 34.0811 11.968 34.5051 11.768C34.9291 11.56 35.4051 11.456 35.9331 11.456C36.7891 11.456 37.4531 11.692 37.9251 12.164C38.4051 12.628 38.6451 13.232 38.6451 13.976C38.6451 14.44 38.5371 14.892 38.3211 15.332C38.1131 15.772 37.8371 16.196 37.4931 16.604C37.1491 17.012 36.7771 17.396 36.3771 17.756C35.9771 18.108 35.5891 18.436 35.2131 18.74H38.8491V20H33.0651ZM43.1366 20.144C42.5206 20.144 41.9886 20.036 41.5406 19.82C41.1006 19.604 40.7526 19.308 40.4966 18.932C40.2486 18.548 40.1046 18.116 40.0646 17.636H41.5646C41.6366 17.98 41.8126 18.268 42.0926 18.5C42.3726 18.724 42.7206 18.836 43.1366 18.836C43.5846 18.836 43.9486 18.672 44.2286 18.344C44.5166 18.016 44.6606 17.608 44.6606 17.12C44.6606 16.616 44.5166 16.216 44.2286 15.92C43.9486 15.624 43.5926 15.476 43.1606 15.476C42.8006 15.476 42.4886 15.564 42.2246 15.74C41.9606 15.916 41.7726 16.136 41.6606 16.4H40.1846L40.9046 11.6H45.5606V12.944H42.0566L41.6726 14.888C41.8486 14.696 42.0886 14.54 42.3926 14.42C42.6966 14.292 43.0366 14.228 43.4126 14.228C44.0126 14.228 44.5126 14.364 44.9126 14.636C45.3126 14.9 45.6166 15.252 45.8246 15.692C46.0326 16.124 46.1366 16.596 46.1366 17.108C46.1366 17.692 46.0086 18.212 45.7526 18.668C45.5046 19.124 45.1526 19.484 44.6966 19.748C44.2486 20.012 43.7286 20.144 43.1366 20.144ZM50.4254 20V11.6H55.9094V12.836H51.9614V15.14H55.5494V16.34H51.9614V18.764H55.9094V20H50.4254ZM59.3189 20V12.836H56.8709V11.6H63.3149V12.836H60.8549V20H59.3189ZM64.4527 20V11.6H65.9887V15.092H69.7567V11.6H71.2927V20H69.7567V16.34H65.9887V20H64.4527Z" fill="#00AC4F"/>
<rect x="0.5" y="0.5" width="79.5312" height="31" rx="5.5" stroke="#00AC4F"/>
<defs>
<clipPath id="clip0_0_237">
<rect width="8.53125" height="14" fill="white" transform="translate(8 9)"/>
</clipPath>
</defs>
</svg>
