<svg width="36" height="38" viewBox="0 0 36 38" fill="none" xmlns="http://www.w3.org/2000/svg">
<g filter="url(#filter0_dd_0_269)">
<rect x="10" y="10" width="16" height="11" fill="white"/>
<path d="M30.7479 14.3182L28.9345 12.2115C28.5879 11.8115 28.3079 11.0648 28.3079 10.5315V8.26483C28.3079 6.8515 27.1479 5.6915 25.7345 5.6915H23.4679C22.9479 5.6915 22.1879 5.4115 21.7879 5.06483L19.6812 3.2515C18.7612 2.46483 17.2545 2.46483 16.3212 3.2515L14.2278 5.07817C13.8278 5.4115 13.0678 5.6915 12.5478 5.6915H10.2411C8.82781 5.6915 7.66781 6.8515 7.66781 8.26483V10.5448C7.66781 11.0648 7.38781 11.8115 7.05448 12.2115L5.25448 14.3315C4.48114 15.2515 4.48114 16.7448 5.25448 17.6648L7.05448 19.7848C7.38781 20.1848 7.66781 20.9315 7.66781 21.4515V23.7315C7.66781 25.1448 8.82781 26.3048 10.2411 26.3048H12.5478C13.0678 26.3048 13.8278 26.5848 14.2278 26.9315L16.3345 28.7448C17.2545 29.5315 18.7612 29.5315 19.6945 28.7448L21.8012 26.9315C22.2012 26.5848 22.9479 26.3048 23.4812 26.3048H25.7479C27.1612 26.3048 28.3212 25.1448 28.3212 23.7315V21.4648C28.3212 20.9448 28.6012 20.1848 28.9479 19.7848L30.7612 17.6782C31.5345 16.7582 31.5345 15.2382 30.7479 14.3182ZM23.5479 13.4782L17.1079 19.9182C16.9212 20.1048 16.6679 20.2115 16.4012 20.2115C16.1345 20.2115 15.8812 20.1048 15.6945 19.9182L12.4678 16.6915C12.0811 16.3048 12.0811 15.6648 12.4678 15.2782C12.8545 14.8915 13.4945 14.8915 13.8811 15.2782L16.4012 17.7982L22.1345 12.0648C22.5212 11.6782 23.1612 11.6782 23.5479 12.0648C23.9345 12.4515 23.9345 13.0915 23.5479 13.4782Z" fill="#1E93FF"/>
</g>
<defs>
<filter id="filter0_dd_0_269" x="-2" y="0" width="40" height="40" filterUnits="userSpaceOnUse" color-interpolation-filters="sRGB">
<feFlood flood-opacity="0" result="BackgroundImageFix"/>
<feColorMatrix in="SourceAlpha" type="matrix" values="0 0 0 0 0 0 0 0 0 0 0 0 0 0 0 0 0 0 127 0" result="hardAlpha"/>
<feOffset dy="4"/>
<feGaussianBlur stdDeviation="2"/>
<feComposite in2="hardAlpha" operator="out"/>
<feColorMatrix type="matrix" values="0 0 0 0 0 0 0 0 0 0 0 0 0 0 0 0 0 0 0.25 0"/>
<feBlend mode="normal" in2="BackgroundImageFix" result="effect1_dropShadow_0_269"/>
<feColorMatrix in="SourceAlpha" type="matrix" values="0 0 0 0 0 0 0 0 0 0 0 0 0 0 0 0 0 0 127 0" result="hardAlpha"/>
<feOffset dy="4"/>
<feGaussianBlur stdDeviation="2"/>
<feComposite in2="hardAlpha" operator="out"/>
<feColorMatrix type="matrix" values="0 0 0 0 0 0 0 0 0 0 0 0 0 0 0 0 0 0 0.25 0"/>
<feBlend mode="normal" in2="effect1_dropShadow_0_269" result="effect2_dropShadow_0_269"/>
<feBlend mode="normal" in="SourceGraphic" in2="effect2_dropShadow_0_269" result="shape"/>
</filter>
</defs>
</svg>
